<mxfile host="app.diagrams.net" modified="2022-08-22T08:51:19.734Z" agent="5.0 (Windows NT 10.0; WOW64) AppleWebKit/537.36 (KHTML, like Gecko) Chrome/86.0.4240.198 Safari/537.36" etag="v9VYjA4jxrH2LRHZmPR_" version="20.1.1" type="github" pages="2">
  <diagram id="C5RBs43oDa-KdzZeNtuy" name="Page-1">
    <mxGraphModel dx="1956" dy="740" grid="1" gridSize="10" guides="1" tooltips="1" connect="1" arrows="1" fold="1" page="1" pageScale="1" pageWidth="827" pageHeight="1169" math="0" shadow="0">
      <root>
        <mxCell id="WIyWlLk6GJQsqaUBKTNV-0" />
        <mxCell id="WIyWlLk6GJQsqaUBKTNV-1" parent="WIyWlLk6GJQsqaUBKTNV-0" />
        <mxCell id="WIyWlLk6GJQsqaUBKTNV-2" value="" style="rounded=0;html=1;jettySize=auto;orthogonalLoop=1;fontSize=20;endArrow=block;endFill=0;endSize=8;strokeWidth=1;shadow=0;labelBackgroundColor=none;edgeStyle=orthogonalEdgeStyle;" parent="WIyWlLk6GJQsqaUBKTNV-1" source="WIyWlLk6GJQsqaUBKTNV-3" target="WIyWlLk6GJQsqaUBKTNV-6" edge="1">
          <mxGeometry relative="1" as="geometry" />
        </mxCell>
        <mxCell id="WIyWlLk6GJQsqaUBKTNV-3" value="&lt;font face=&quot;Times New Roman&quot; style=&quot;font-size: 20px;&quot;&gt;NLOS Lighted Range&amp;nbsp;&lt;/font&gt;&lt;span style=&quot;font-family: &amp;quot;Times New Roman&amp;quot;;&quot;&gt;Test&lt;/span&gt;" style="rounded=1;whiteSpace=wrap;html=1;fontSize=20;glass=0;strokeWidth=1;shadow=0;" parent="WIyWlLk6GJQsqaUBKTNV-1" vertex="1">
          <mxGeometry x="220" y="40" width="130" height="70" as="geometry" />
        </mxCell>
        <mxCell id="WIyWlLk6GJQsqaUBKTNV-5" value="No" style="edgeStyle=orthogonalEdgeStyle;rounded=0;html=1;jettySize=auto;orthogonalLoop=1;fontSize=20;endArrow=block;endFill=0;endSize=8;strokeWidth=1;shadow=0;labelBackgroundColor=none;fontFamily=Times New Roman;" parent="WIyWlLk6GJQsqaUBKTNV-1" source="WIyWlLk6GJQsqaUBKTNV-6" target="WIyWlLk6GJQsqaUBKTNV-7" edge="1">
          <mxGeometry y="10" relative="1" as="geometry">
            <mxPoint as="offset" />
          </mxGeometry>
        </mxCell>
        <mxCell id="WIyWlLk6GJQsqaUBKTNV-4" value="Yes" style="rounded=0;jettySize=auto;orthogonalLoop=1;fontSize=20;endArrow=block;endFill=0;endSize=8;strokeWidth=1;shadow=0;labelBackgroundColor=none;edgeStyle=orthogonalEdgeStyle;fontFamily=Times New Roman;html=1;verticalAlign=middle;horizontal=1;entryX=0.5;entryY=0;entryDx=0;entryDy=0;" parent="WIyWlLk6GJQsqaUBKTNV-1" source="WIyWlLk6GJQsqaUBKTNV-6" target="WIyWlLk6GJQsqaUBKTNV-10" edge="1">
          <mxGeometry x="0.0769" y="-10" relative="1" as="geometry">
            <mxPoint as="offset" />
            <Array as="points">
              <mxPoint x="285" y="260" />
              <mxPoint x="5" y="260" />
            </Array>
          </mxGeometry>
        </mxCell>
        <mxCell id="WIyWlLk6GJQsqaUBKTNV-6" value="&lt;font style=&quot;&quot;&gt;&lt;span style=&quot;font-size: 20px; font-family: &amp;quot;Times New Roman&amp;quot;;&quot;&gt;|h&lt;/span&gt;&lt;span style=&quot;font-family: &amp;quot;Times New Roman&amp;quot;;&quot;&gt;&lt;font style=&quot;font-size: 13px;&quot;&gt;1&lt;/font&gt;&lt;/span&gt;&lt;span style=&quot;font-size: 20px; font-family: &amp;quot;Times New Roman&amp;quot;;&quot;&gt;-h&lt;/span&gt;&lt;span style=&quot;font-family: &amp;quot;Times New Roman&amp;quot;;&quot;&gt;&lt;font style=&quot;font-size: 13px;&quot;&gt;2&lt;/font&gt;&lt;/span&gt;&lt;span style=&quot;font-size: 20px; font-family: &amp;quot;Times New Roman&amp;quot;;&quot;&gt;|&amp;lt;h&lt;/span&gt;&lt;span style=&quot;font-family: &amp;quot;Times New Roman&amp;quot;;&quot;&gt;&lt;font style=&quot;font-size: 13px;&quot;&gt;ref&lt;/font&gt;&lt;/span&gt;&lt;/font&gt;" style="rhombus;whiteSpace=wrap;html=1;shadow=0;fontFamily=Helvetica;fontSize=12;align=center;strokeWidth=1;spacing=6;spacingTop=-4;" parent="WIyWlLk6GJQsqaUBKTNV-1" vertex="1">
          <mxGeometry x="210" y="160" width="150" height="70" as="geometry" />
        </mxCell>
        <mxCell id="WIyWlLk6GJQsqaUBKTNV-7" value="&lt;span style=&quot;font-family: &amp;quot;Times New Roman&amp;quot;; font-size: 20px;&quot;&gt;No Multipath in NLOS&lt;/span&gt;" style="rounded=1;whiteSpace=wrap;html=1;fontSize=20;glass=0;strokeWidth=1;shadow=0;" parent="WIyWlLk6GJQsqaUBKTNV-1" vertex="1">
          <mxGeometry x="490" y="156.25" width="150" height="77.5" as="geometry" />
        </mxCell>
        <mxCell id="WIyWlLk6GJQsqaUBKTNV-8" value="No" style="rounded=0;html=1;jettySize=auto;orthogonalLoop=1;fontSize=20;endArrow=block;endFill=0;endSize=8;strokeWidth=1;shadow=0;labelBackgroundColor=none;edgeStyle=orthogonalEdgeStyle;fontFamily=Times New Roman;entryX=0;entryY=0.5;entryDx=0;entryDy=0;" parent="WIyWlLk6GJQsqaUBKTNV-1" source="WIyWlLk6GJQsqaUBKTNV-10" target="kJNikSD5Y3pqGu4riJ4B-3" edge="1">
          <mxGeometry x="-0.0909" y="10" relative="1" as="geometry">
            <mxPoint as="offset" />
          </mxGeometry>
        </mxCell>
        <mxCell id="WIyWlLk6GJQsqaUBKTNV-9" value="Yes" style="edgeStyle=orthogonalEdgeStyle;rounded=0;html=1;jettySize=auto;orthogonalLoop=1;fontSize=20;endArrow=block;endFill=0;endSize=8;strokeWidth=1;shadow=0;labelBackgroundColor=none;fontFamily=Times New Roman;entryX=0.5;entryY=0;entryDx=0;entryDy=0;" parent="WIyWlLk6GJQsqaUBKTNV-1" source="WIyWlLk6GJQsqaUBKTNV-10" target="WIyWlLk6GJQsqaUBKTNV-12" edge="1">
          <mxGeometry y="-20" relative="1" as="geometry">
            <mxPoint as="offset" />
          </mxGeometry>
        </mxCell>
        <mxCell id="WIyWlLk6GJQsqaUBKTNV-10" value="N=M" style="rhombus;whiteSpace=wrap;html=1;shadow=0;fontFamily=Times New Roman;fontSize=20;align=center;strokeWidth=1;spacing=6;spacingTop=-4;" parent="WIyWlLk6GJQsqaUBKTNV-1" vertex="1">
          <mxGeometry x="-70" y="290" width="150" height="80" as="geometry" />
        </mxCell>
        <mxCell id="WIyWlLk6GJQsqaUBKTNV-12" value="1 Multipath&lt;br style=&quot;font-size: 20px;&quot;&gt;&amp;nbsp;Lighted Area" style="rounded=0;whiteSpace=wrap;html=1;fontSize=20;glass=0;strokeWidth=1;shadow=0;fontFamily=Times New Roman;" parent="WIyWlLk6GJQsqaUBKTNV-1" vertex="1">
          <mxGeometry x="-80" y="430" width="170" height="70" as="geometry" />
        </mxCell>
        <mxCell id="kJNikSD5Y3pqGu4riJ4B-3" value="N=M+1" style="rhombus;whiteSpace=wrap;html=1;shadow=0;fontFamily=Times New Roman;fontSize=20;align=center;strokeWidth=1;spacing=6;spacingTop=-4;" vertex="1" parent="WIyWlLk6GJQsqaUBKTNV-1">
          <mxGeometry x="210" y="290" width="150" height="80" as="geometry" />
        </mxCell>
        <mxCell id="kJNikSD5Y3pqGu4riJ4B-5" value="N=M+2" style="rhombus;whiteSpace=wrap;html=1;shadow=0;fontFamily=Times New Roman;fontSize=20;align=center;strokeWidth=1;spacing=6;spacingTop=-4;" vertex="1" parent="WIyWlLk6GJQsqaUBKTNV-1">
          <mxGeometry x="489" y="289" width="160" height="80" as="geometry" />
        </mxCell>
        <mxCell id="kJNikSD5Y3pqGu4riJ4B-6" value="Yes" style="edgeStyle=orthogonalEdgeStyle;rounded=0;html=1;jettySize=auto;orthogonalLoop=1;fontSize=20;endArrow=block;endFill=0;endSize=8;strokeWidth=1;shadow=0;labelBackgroundColor=none;fontFamily=Times New Roman;" edge="1" parent="WIyWlLk6GJQsqaUBKTNV-1">
          <mxGeometry y="-20" relative="1" as="geometry">
            <mxPoint as="offset" />
            <mxPoint x="569" y="370" as="sourcePoint" />
            <mxPoint x="569" y="430" as="targetPoint" />
          </mxGeometry>
        </mxCell>
        <mxCell id="kJNikSD5Y3pqGu4riJ4B-8" value="Yes" style="edgeStyle=orthogonalEdgeStyle;rounded=0;html=1;jettySize=auto;orthogonalLoop=1;fontSize=20;endArrow=block;endFill=0;endSize=8;strokeWidth=1;shadow=0;labelBackgroundColor=none;fontFamily=Times New Roman;exitX=0.5;exitY=1;exitDx=0;exitDy=0;" edge="1" parent="WIyWlLk6GJQsqaUBKTNV-1" source="kJNikSD5Y3pqGu4riJ4B-3">
          <mxGeometry y="-20" relative="1" as="geometry">
            <mxPoint as="offset" />
            <mxPoint x="290" y="371" as="sourcePoint" />
            <mxPoint x="285" y="430" as="targetPoint" />
            <Array as="points">
              <mxPoint x="285" y="430" />
              <mxPoint x="285" y="430" />
            </Array>
          </mxGeometry>
        </mxCell>
        <mxCell id="kJNikSD5Y3pqGu4riJ4B-11" value="No" style="rounded=0;html=1;jettySize=auto;orthogonalLoop=1;fontSize=20;endArrow=block;endFill=0;endSize=8;strokeWidth=1;shadow=0;labelBackgroundColor=none;edgeStyle=orthogonalEdgeStyle;fontFamily=Times New Roman;" edge="1" parent="WIyWlLk6GJQsqaUBKTNV-1" source="kJNikSD5Y3pqGu4riJ4B-13">
          <mxGeometry x="0.6758" y="20" relative="1" as="geometry">
            <mxPoint as="offset" />
            <mxPoint x="140.05882352941194" y="690" as="targetPoint" />
            <Array as="points">
              <mxPoint x="140" y="590" />
            </Array>
          </mxGeometry>
        </mxCell>
        <mxCell id="kJNikSD5Y3pqGu4riJ4B-12" value="Yes" style="edgeStyle=orthogonalEdgeStyle;rounded=0;html=1;jettySize=auto;orthogonalLoop=1;fontSize=20;endArrow=block;endFill=0;endSize=8;strokeWidth=1;shadow=0;labelBackgroundColor=none;fontFamily=Times New Roman;" edge="1" parent="WIyWlLk6GJQsqaUBKTNV-1" source="kJNikSD5Y3pqGu4riJ4B-13">
          <mxGeometry y="-20" relative="1" as="geometry">
            <mxPoint as="offset" />
            <mxPoint x="5" y="690" as="targetPoint" />
          </mxGeometry>
        </mxCell>
        <mxCell id="kJNikSD5Y3pqGu4riJ4B-13" value="N odd" style="rhombus;whiteSpace=wrap;html=1;shadow=0;fontFamily=Times New Roman;fontSize=20;align=center;strokeWidth=1;spacing=6;spacingTop=-4;" vertex="1" parent="WIyWlLk6GJQsqaUBKTNV-1">
          <mxGeometry x="-45" y="550" width="100" height="80" as="geometry" />
        </mxCell>
        <mxCell id="kJNikSD5Y3pqGu4riJ4B-16" value="" style="rounded=0;html=1;jettySize=auto;orthogonalLoop=1;fontSize=20;endArrow=block;endFill=0;endSize=8;strokeWidth=1;shadow=0;labelBackgroundColor=none;edgeStyle=orthogonalEdgeStyle;entryX=0.5;entryY=0;entryDx=0;entryDy=0;" edge="1" parent="WIyWlLk6GJQsqaUBKTNV-1" source="WIyWlLk6GJQsqaUBKTNV-12" target="kJNikSD5Y3pqGu4riJ4B-13">
          <mxGeometry relative="1" as="geometry">
            <mxPoint x="138" y="168" as="sourcePoint" />
            <mxPoint x="138" y="218" as="targetPoint" />
          </mxGeometry>
        </mxCell>
        <mxCell id="kJNikSD5Y3pqGu4riJ4B-17" value="Two Multipaths&lt;br style=&quot;font-size: 20px;&quot;&gt;&amp;nbsp;+ One LOS&amp;nbsp;&lt;br&gt;Lighted Areas" style="rounded=0;whiteSpace=wrap;html=1;fontSize=20;glass=0;strokeWidth=1;shadow=0;fontFamily=Times New Roman;" vertex="1" parent="WIyWlLk6GJQsqaUBKTNV-1">
          <mxGeometry x="200" y="430" width="170" height="70" as="geometry" />
        </mxCell>
        <mxCell id="kJNikSD5Y3pqGu4riJ4B-18" value="Three Multipaths&lt;br&gt;&amp;nbsp;+ One LOS&amp;nbsp;&lt;br&gt;Lighted Areas" style="rounded=0;whiteSpace=wrap;html=1;fontSize=20;glass=0;strokeWidth=1;shadow=0;fontFamily=Times New Roman;" vertex="1" parent="WIyWlLk6GJQsqaUBKTNV-1">
          <mxGeometry x="492" y="430" width="160" height="70" as="geometry" />
        </mxCell>
        <mxCell id="kJNikSD5Y3pqGu4riJ4B-19" value="&lt;i&gt;x&lt;/i&gt;=[&lt;i style=&quot;&quot;&gt;&lt;span style=&quot;font-size: 19px;&quot;&gt;L-x&lt;/span&gt;&lt;font style=&quot;font-size: 14px;&quot;&gt;n&lt;/font&gt;&lt;span style=&quot;font-size: 19px;&quot;&gt;,L-x&lt;/span&gt;&lt;font style=&quot;font-size: 15px;&quot;&gt;m&lt;/font&gt;&lt;/i&gt;]" style="rounded=1;whiteSpace=wrap;html=1;fontSize=20;glass=0;strokeWidth=1;shadow=0;fontFamily=Times New Roman;" vertex="1" parent="WIyWlLk6GJQsqaUBKTNV-1">
          <mxGeometry x="-55" y="690" width="120" height="50" as="geometry" />
        </mxCell>
        <mxCell id="kJNikSD5Y3pqGu4riJ4B-20" value="No" style="rounded=0;html=1;jettySize=auto;orthogonalLoop=1;fontSize=20;endArrow=block;endFill=0;endSize=8;strokeWidth=1;shadow=0;labelBackgroundColor=none;edgeStyle=orthogonalEdgeStyle;fontFamily=Times New Roman;exitX=1;exitY=0.5;exitDx=0;exitDy=0;" edge="1" parent="WIyWlLk6GJQsqaUBKTNV-1" source="kJNikSD5Y3pqGu4riJ4B-3">
          <mxGeometry x="-0.0909" y="10" relative="1" as="geometry">
            <mxPoint as="offset" />
            <mxPoint x="340" y="329.33" as="sourcePoint" />
            <mxPoint x="490" y="329" as="targetPoint" />
          </mxGeometry>
        </mxCell>
        <mxCell id="kJNikSD5Y3pqGu4riJ4B-22" value="&lt;i&gt;x&lt;/i&gt;=[&lt;i style=&quot;&quot;&gt;&lt;span style=&quot;font-size: 19px;&quot;&gt;x&lt;/span&gt;&lt;font style=&quot;font-size: 15px;&quot;&gt;m&lt;/font&gt;&lt;/i&gt;,&lt;i&gt;&lt;span style=&quot;font-size: 19px;&quot;&gt;x&lt;/span&gt;&lt;font style=&quot;font-size: 14px;&quot;&gt;n&lt;/font&gt;&lt;/i&gt;]" style="rounded=1;whiteSpace=wrap;html=1;fontSize=20;glass=0;strokeWidth=1;shadow=0;fontFamily=Times New Roman;" vertex="1" parent="WIyWlLk6GJQsqaUBKTNV-1">
          <mxGeometry x="80" y="690" width="120" height="50" as="geometry" />
        </mxCell>
        <mxCell id="kJNikSD5Y3pqGu4riJ4B-23" value="No" style="rounded=0;html=1;jettySize=auto;orthogonalLoop=1;fontSize=20;endArrow=block;endFill=0;endSize=8;strokeWidth=1;shadow=0;labelBackgroundColor=none;edgeStyle=orthogonalEdgeStyle;fontFamily=Times New Roman;" edge="1" parent="WIyWlLk6GJQsqaUBKTNV-1" source="kJNikSD5Y3pqGu4riJ4B-25">
          <mxGeometry x="0.6758" y="20" relative="1" as="geometry">
            <mxPoint as="offset" />
            <mxPoint x="421.05882352941194" y="690" as="targetPoint" />
            <Array as="points">
              <mxPoint x="421" y="590" />
            </Array>
          </mxGeometry>
        </mxCell>
        <mxCell id="kJNikSD5Y3pqGu4riJ4B-24" value="Yes" style="edgeStyle=orthogonalEdgeStyle;rounded=0;html=1;jettySize=auto;orthogonalLoop=1;fontSize=20;endArrow=block;endFill=0;endSize=8;strokeWidth=1;shadow=0;labelBackgroundColor=none;fontFamily=Times New Roman;" edge="1" parent="WIyWlLk6GJQsqaUBKTNV-1" source="kJNikSD5Y3pqGu4riJ4B-25">
          <mxGeometry y="-20" relative="1" as="geometry">
            <mxPoint as="offset" />
            <mxPoint x="286" y="690" as="targetPoint" />
          </mxGeometry>
        </mxCell>
        <mxCell id="kJNikSD5Y3pqGu4riJ4B-25" value="N odd" style="rhombus;whiteSpace=wrap;html=1;shadow=0;fontFamily=Times New Roman;fontSize=20;align=center;strokeWidth=1;spacing=6;spacingTop=-4;" vertex="1" parent="WIyWlLk6GJQsqaUBKTNV-1">
          <mxGeometry x="236" y="550" width="100" height="80" as="geometry" />
        </mxCell>
        <mxCell id="kJNikSD5Y3pqGu4riJ4B-26" value="" style="rounded=0;html=1;jettySize=auto;orthogonalLoop=1;fontSize=20;endArrow=block;endFill=0;endSize=8;strokeWidth=1;shadow=0;labelBackgroundColor=none;edgeStyle=orthogonalEdgeStyle;entryX=0.5;entryY=0;entryDx=0;entryDy=0;" edge="1" parent="WIyWlLk6GJQsqaUBKTNV-1" target="kJNikSD5Y3pqGu4riJ4B-25">
          <mxGeometry relative="1" as="geometry">
            <mxPoint x="286" y="500" as="sourcePoint" />
            <mxPoint x="419" y="218" as="targetPoint" />
          </mxGeometry>
        </mxCell>
        <mxCell id="kJNikSD5Y3pqGu4riJ4B-27" value="&lt;i&gt;x&lt;/i&gt;=[&lt;i&gt;&lt;span style=&quot;font-size: 19px;&quot;&gt;x&lt;/span&gt;&lt;font style=&quot;font-size: 15px;&quot;&gt;m&lt;/font&gt;&lt;/i&gt;&lt;i&gt;&lt;span style=&quot;font-size: 19px;&quot;&gt;,L&lt;/span&gt;&lt;/i&gt;],&lt;br&gt;[&lt;i&gt;&lt;span style=&quot;font-size: 19px;&quot;&gt;L-x&lt;/span&gt;&lt;font style=&quot;font-size: 14px;&quot;&gt;n&lt;/font&gt;&lt;span style=&quot;font-size: 19px;&quot;&gt;,L&lt;/span&gt;&lt;/i&gt;]" style="rounded=1;whiteSpace=wrap;html=1;fontSize=20;glass=0;strokeWidth=1;shadow=0;fontFamily=Times New Roman;" vertex="1" parent="WIyWlLk6GJQsqaUBKTNV-1">
          <mxGeometry x="226" y="690" width="120" height="50" as="geometry" />
        </mxCell>
        <mxCell id="kJNikSD5Y3pqGu4riJ4B-28" value="&lt;i&gt;x&lt;/i&gt;=[&lt;span style=&quot;font-size: 19px;&quot;&gt;&lt;i&gt;0,&lt;/i&gt;&lt;/span&gt;&lt;i&gt;&lt;span style=&quot;font-size: 19px;&quot;&gt;x&lt;/span&gt;&lt;font style=&quot;font-size: 14px;&quot;&gt;n&lt;/font&gt;&lt;/i&gt;],&lt;br&gt;[0,&lt;i&gt;&lt;span style=&quot;font-size: 19px;&quot;&gt;L-x&lt;/span&gt;&lt;span style=&quot;font-size: 14px;&quot;&gt;m&lt;/span&gt;&lt;/i&gt;]" style="rounded=1;whiteSpace=wrap;html=1;fontSize=20;glass=0;strokeWidth=1;shadow=0;fontFamily=Times New Roman;" vertex="1" parent="WIyWlLk6GJQsqaUBKTNV-1">
          <mxGeometry x="361" y="690" width="120" height="50" as="geometry" />
        </mxCell>
        <mxCell id="kJNikSD5Y3pqGu4riJ4B-29" value="No" style="rounded=0;html=1;jettySize=auto;orthogonalLoop=1;fontSize=20;endArrow=block;endFill=0;endSize=8;strokeWidth=1;shadow=0;labelBackgroundColor=none;edgeStyle=orthogonalEdgeStyle;fontFamily=Times New Roman;" edge="1" parent="WIyWlLk6GJQsqaUBKTNV-1" source="kJNikSD5Y3pqGu4riJ4B-31">
          <mxGeometry x="0.6758" y="20" relative="1" as="geometry">
            <mxPoint as="offset" />
            <mxPoint x="705.0588235294117" y="690" as="targetPoint" />
            <Array as="points">
              <mxPoint x="705" y="590" />
            </Array>
          </mxGeometry>
        </mxCell>
        <mxCell id="kJNikSD5Y3pqGu4riJ4B-30" value="Yes" style="edgeStyle=orthogonalEdgeStyle;rounded=0;html=1;jettySize=auto;orthogonalLoop=1;fontSize=20;endArrow=block;endFill=0;endSize=8;strokeWidth=1;shadow=0;labelBackgroundColor=none;fontFamily=Times New Roman;" edge="1" parent="WIyWlLk6GJQsqaUBKTNV-1" source="kJNikSD5Y3pqGu4riJ4B-31">
          <mxGeometry y="-20" relative="1" as="geometry">
            <mxPoint as="offset" />
            <mxPoint x="570" y="690" as="targetPoint" />
          </mxGeometry>
        </mxCell>
        <mxCell id="kJNikSD5Y3pqGu4riJ4B-31" value="N odd" style="rhombus;whiteSpace=wrap;html=1;shadow=0;fontFamily=Times New Roman;fontSize=20;align=center;strokeWidth=1;spacing=6;spacingTop=-4;" vertex="1" parent="WIyWlLk6GJQsqaUBKTNV-1">
          <mxGeometry x="520" y="550" width="100" height="80" as="geometry" />
        </mxCell>
        <mxCell id="kJNikSD5Y3pqGu4riJ4B-32" value="&lt;i&gt;x&lt;/i&gt;=[0,&lt;i&gt;&lt;span style=&quot;font-size: 19px;&quot;&gt;L-x&lt;/span&gt;&lt;span style=&quot;font-size: 14px;&quot;&gt;m&lt;/span&gt;&lt;/i&gt;],&lt;br&gt;[&lt;i&gt;&lt;span style=&quot;font-size: 19px;&quot;&gt;L-x&lt;/span&gt;&lt;font style=&quot;font-size: 14px;&quot;&gt;n&lt;/font&gt;&lt;span style=&quot;font-size: 19px;&quot;&gt;,L&lt;/span&gt;&lt;/i&gt;],[0,&lt;i&gt;L&lt;/i&gt;]" style="rounded=1;whiteSpace=wrap;html=1;fontSize=20;glass=0;strokeWidth=1;shadow=0;fontFamily=Times New Roman;" vertex="1" parent="WIyWlLk6GJQsqaUBKTNV-1">
          <mxGeometry x="510" y="690" width="120" height="50" as="geometry" />
        </mxCell>
        <mxCell id="kJNikSD5Y3pqGu4riJ4B-33" value="&lt;i&gt;x&lt;/i&gt;=[&lt;span style=&quot;font-size: 19px;&quot;&gt;&lt;i&gt;0,&lt;/i&gt;&lt;/span&gt;&lt;i&gt;&lt;span style=&quot;font-size: 19px;&quot;&gt;x&lt;/span&gt;&lt;font style=&quot;font-size: 14px;&quot;&gt;n&lt;/font&gt;&lt;/i&gt;],&lt;br&gt;[&lt;i&gt;&lt;span style=&quot;font-size: 19px;&quot;&gt;x&lt;/span&gt;&lt;span style=&quot;font-size: 14px;&quot;&gt;m&lt;/span&gt;&lt;span style=&quot;font-size: 19px;&quot;&gt;,L&lt;/span&gt;&lt;/i&gt;],[0,&lt;i&gt;L&lt;/i&gt;]" style="rounded=1;whiteSpace=wrap;html=1;fontSize=20;glass=0;strokeWidth=1;shadow=0;fontFamily=Times New Roman;" vertex="1" parent="WIyWlLk6GJQsqaUBKTNV-1">
          <mxGeometry x="645" y="690" width="120" height="50" as="geometry" />
        </mxCell>
        <mxCell id="kJNikSD5Y3pqGu4riJ4B-35" value="" style="rounded=0;html=1;jettySize=auto;orthogonalLoop=1;fontSize=20;endArrow=block;endFill=0;endSize=8;strokeWidth=1;shadow=0;labelBackgroundColor=none;edgeStyle=orthogonalEdgeStyle;entryX=0.5;entryY=0;entryDx=0;entryDy=0;" edge="1" parent="WIyWlLk6GJQsqaUBKTNV-1">
          <mxGeometry relative="1" as="geometry">
            <mxPoint x="569.3299999999999" y="500" as="sourcePoint" />
            <mxPoint x="569.3299999999999" y="550" as="targetPoint" />
          </mxGeometry>
        </mxCell>
      </root>
    </mxGraphModel>
  </diagram>
  <diagram id="xFwffrO_G37CZqA6ei-k" name="Page-2">
    <mxGraphModel dx="864" dy="1735" grid="1" gridSize="10" guides="1" tooltips="1" connect="1" arrows="1" fold="1" page="1" pageScale="1" pageWidth="827" pageHeight="1169" math="0" shadow="0">
      <root>
        <mxCell id="0" />
        <mxCell id="1" parent="0" />
        <mxCell id="zwlNuwdFSJ3B0U6A_OJ0-1" value="" style="outlineConnect=0;dashed=0;verticalLabelPosition=bottom;verticalAlign=top;align=center;html=1;shape=mxgraph.aws3.office_building;fillColor=#bac8d3;rounded=0;fontFamily=Times New Roman;fontSize=15;strokeColor=#23445d;" vertex="1" parent="1">
          <mxGeometry x="146" y="40" width="93" height="239.5" as="geometry" />
        </mxCell>
        <mxCell id="zwlNuwdFSJ3B0U6A_OJ0-3" value="" style="outlineConnect=0;dashed=0;verticalLabelPosition=bottom;verticalAlign=top;align=center;html=1;shape=mxgraph.aws3.office_building;fillColor=#bac8d3;rounded=0;fontFamily=Times New Roman;fontSize=15;strokeColor=#23445d;" vertex="1" parent="1">
          <mxGeometry x="530" y="40" width="93" height="239.5" as="geometry" />
        </mxCell>
        <mxCell id="zwlNuwdFSJ3B0U6A_OJ0-4" value="" style="endArrow=none;html=1;rounded=1;fontFamily=Times New Roman;fontSize=15;shadow=0;sketch=0;strokeWidth=3;fillColor=#f5f5f5;strokeColor=#666666;" edge="1" parent="1">
          <mxGeometry width="50" height="50" relative="1" as="geometry">
            <mxPoint x="80" y="280" as="sourcePoint" />
            <mxPoint x="770" y="280" as="targetPoint" />
          </mxGeometry>
        </mxCell>
        <mxCell id="zwlNuwdFSJ3B0U6A_OJ0-9" value="" style="verticalLabelPosition=bottom;outlineConnect=0;align=center;dashed=0;html=1;verticalAlign=top;shape=mxgraph.pid.misc.tank_car,_tank_wagon;rounded=0;fontFamily=Times New Roman;fontSize=15;strokeWidth=3;fillColor=#cdeb8b;strokeColor=#36393d;" vertex="1" parent="1">
          <mxGeometry x="340" y="249.5" width="40" height="30" as="geometry" />
        </mxCell>
        <mxCell id="zwlNuwdFSJ3B0U6A_OJ0-10" value="" style="verticalLabelPosition=bottom;outlineConnect=0;align=center;dashed=0;html=1;verticalAlign=top;shape=mxgraph.pid.misc.tank_car,_tank_wagon;rounded=0;fontFamily=Times New Roman;fontSize=15;strokeWidth=3;fillColor=#ffcccc;strokeColor=#36393d;" vertex="1" parent="1">
          <mxGeometry x="380" y="249.5" width="40" height="30" as="geometry" />
        </mxCell>
        <mxCell id="zwlNuwdFSJ3B0U6A_OJ0-12" value="" style="strokeWidth=2;html=1;shape=mxgraph.flowchart.annotation_2;align=left;labelPosition=right;pointerEvents=1;rounded=0;fontFamily=Times New Roman;fontSize=15;rotation=-90;" vertex="1" parent="1">
          <mxGeometry x="450" y="260" width="50" height="100" as="geometry" />
        </mxCell>
        <mxCell id="zwlNuwdFSJ3B0U6A_OJ0-13" value="" style="strokeWidth=2;html=1;shape=mxgraph.flowchart.annotation_2;align=left;labelPosition=right;pointerEvents=1;rounded=0;fontFamily=Times New Roman;fontSize=15;rotation=-90;" vertex="1" parent="1">
          <mxGeometry x="270" y="260" width="50" height="100" as="geometry" />
        </mxCell>
        <mxCell id="zwlNuwdFSJ3B0U6A_OJ0-14" value="30" style="text;html=1;strokeColor=none;fillColor=none;align=center;verticalAlign=middle;whiteSpace=wrap;rounded=0;labelBorderColor=none;fontFamily=Times New Roman;fontSize=20;" vertex="1" parent="1">
          <mxGeometry x="265" y="330" width="60" height="30" as="geometry" />
        </mxCell>
        <mxCell id="zwlNuwdFSJ3B0U6A_OJ0-16" value="30" style="text;html=1;strokeColor=none;fillColor=none;align=center;verticalAlign=middle;whiteSpace=wrap;rounded=0;labelBorderColor=none;fontFamily=Times New Roman;fontSize=20;" vertex="1" parent="1">
          <mxGeometry x="445" y="330" width="60" height="30" as="geometry" />
        </mxCell>
        <mxCell id="zwlNuwdFSJ3B0U6A_OJ0-17" value="" style="strokeWidth=2;html=1;shape=mxgraph.flowchart.annotation_2;align=left;labelPosition=right;pointerEvents=1;rounded=0;fontFamily=Times New Roman;fontSize=15;rotation=0;" vertex="1" parent="1">
          <mxGeometry x="310" y="249.5" width="20" height="30" as="geometry" />
        </mxCell>
        <mxCell id="zwlNuwdFSJ3B0U6A_OJ0-18" value="2" style="text;html=1;strokeColor=none;fillColor=none;align=center;verticalAlign=middle;whiteSpace=wrap;rounded=0;labelBorderColor=none;fontFamily=Times New Roman;fontSize=20;" vertex="1" parent="1">
          <mxGeometry x="265" y="249.5" width="60" height="30" as="geometry" />
        </mxCell>
        <mxCell id="zwlNuwdFSJ3B0U6A_OJ0-19" value="" style="strokeWidth=2;html=1;shape=mxgraph.flowchart.annotation_2;align=left;labelPosition=right;pointerEvents=1;rounded=0;fontFamily=Times New Roman;fontSize=15;rotation=-90;" vertex="1" parent="1">
          <mxGeometry x="360" y="270" width="50" height="80" as="geometry" />
        </mxCell>
        <mxCell id="zwlNuwdFSJ3B0U6A_OJ0-20" value="23" style="text;html=1;strokeColor=none;fillColor=none;align=center;verticalAlign=middle;whiteSpace=wrap;rounded=0;labelBorderColor=none;fontFamily=Times New Roman;fontSize=20;" vertex="1" parent="1">
          <mxGeometry x="360" y="330" width="50" height="30" as="geometry" />
        </mxCell>
        <mxCell id="zwlNuwdFSJ3B0U6A_OJ0-21" value="" style="endArrow=classic;html=1;rounded=1;shadow=0;sketch=0;fontFamily=Times New Roman;fontSize=16;strokeWidth=2;fillColor=#f8cecc;gradientColor=#ea6b66;strokeColor=#b85450;entryX=1;entryY=0.5;entryDx=0;entryDy=0;entryPerimeter=0;" edge="1" parent="1" target="zwlNuwdFSJ3B0U6A_OJ0-12">
          <mxGeometry width="50" height="50" relative="1" as="geometry">
            <mxPoint x="214" y="20" as="sourcePoint" />
            <mxPoint x="414" y="220" as="targetPoint" />
          </mxGeometry>
        </mxCell>
        <mxCell id="zwlNuwdFSJ3B0U6A_OJ0-22" value="" style="endArrow=classic;html=1;rounded=1;shadow=0;sketch=0;fontFamily=Times New Roman;fontSize=16;strokeWidth=2;fillColor=#f8cecc;gradientColor=#ea6b66;strokeColor=#b85450;entryX=1;entryY=0.5;entryDx=0;entryDy=0;entryPerimeter=0;" edge="1" parent="1">
          <mxGeometry width="50" height="50" relative="1" as="geometry">
            <mxPoint x="478" y="1" as="sourcePoint" />
            <mxPoint x="541.9999999999998" y="61" as="targetPoint" />
          </mxGeometry>
        </mxCell>
        <mxCell id="zwlNuwdFSJ3B0U6A_OJ0-23" value="" style="endArrow=classic;html=1;rounded=1;shadow=0;sketch=0;fontFamily=Times New Roman;fontSize=16;strokeWidth=2;fillColor=#f8cecc;gradientColor=#ea6b66;strokeColor=#b85450;entryX=1;entryY=0;entryDx=0;entryDy=0;entryPerimeter=0;startArrow=classic;startFill=1;" edge="1" parent="1">
          <mxGeometry width="50" height="50" relative="1" as="geometry">
            <mxPoint x="540" y="60" as="sourcePoint" />
            <mxPoint x="346" y="249.5" as="targetPoint" />
          </mxGeometry>
        </mxCell>
        <mxCell id="zwlNuwdFSJ3B0U6A_OJ0-24" value="" style="endArrow=classic;html=1;rounded=1;shadow=0;sketch=0;fontFamily=Times New Roman;fontSize=16;strokeWidth=2;fillColor=#f8cecc;gradientColor=#ea6b66;strokeColor=#b85450;startArrow=classic;startFill=1;" edge="1" parent="1">
          <mxGeometry width="50" height="50" relative="1" as="geometry">
            <mxPoint x="534" y="120" as="sourcePoint" />
            <mxPoint x="409.45783132530096" y="249.5" as="targetPoint" />
          </mxGeometry>
        </mxCell>
        <mxCell id="zwlNuwdFSJ3B0U6A_OJ0-25" value="" style="endArrow=classic;html=1;rounded=1;shadow=0;sketch=0;fontFamily=Times New Roman;fontSize=16;strokeWidth=2;fillColor=#f8cecc;gradientColor=#ea6b66;strokeColor=#b85450;entryX=1;entryY=0.5;entryDx=0;entryDy=0;entryPerimeter=0;" edge="1" parent="1">
          <mxGeometry width="50" height="50" relative="1" as="geometry">
            <mxPoint x="468" y="64" as="sourcePoint" />
            <mxPoint x="531.9999999999998" y="124" as="targetPoint" />
          </mxGeometry>
        </mxCell>
        <mxCell id="zwlNuwdFSJ3B0U6A_OJ0-26" value="" style="endArrow=classic;html=1;rounded=1;shadow=0;sketch=0;fontFamily=Times New Roman;fontSize=16;strokeWidth=2;fillColor=#f8cecc;gradientColor=#ea6b66;strokeColor=#b85450;dashed=1;" edge="1" parent="1">
          <mxGeometry width="50" height="50" relative="1" as="geometry">
            <mxPoint x="546" y="60" as="sourcePoint" />
            <mxPoint x="746" y="247" as="targetPoint" />
          </mxGeometry>
        </mxCell>
        <mxCell id="zwlNuwdFSJ3B0U6A_OJ0-27" value="" style="endArrow=classic;html=1;rounded=1;shadow=0;sketch=0;fontFamily=Times New Roman;fontSize=16;strokeWidth=2;fillColor=#f8cecc;gradientColor=#ea6b66;strokeColor=#b85450;dashed=1;" edge="1" parent="1" target="zwlNuwdFSJ3B0U6A_OJ0-28">
          <mxGeometry width="50" height="50" relative="1" as="geometry">
            <mxPoint x="530" y="120" as="sourcePoint" />
            <mxPoint x="680" y="240" as="targetPoint" />
          </mxGeometry>
        </mxCell>
        <mxCell id="zwlNuwdFSJ3B0U6A_OJ0-28" value="" style="verticalLabelPosition=bottom;outlineConnect=0;align=center;dashed=1;html=1;verticalAlign=top;shape=mxgraph.pid.misc.tank_car,_tank_wagon;rounded=0;fontFamily=Times New Roman;fontSize=15;strokeWidth=3;fillColor=#ffcccc;strokeColor=#36393d;dashPattern=1 2;" vertex="1" parent="1">
          <mxGeometry x="670" y="249.5" width="40" height="30" as="geometry" />
        </mxCell>
        <mxCell id="zwlNuwdFSJ3B0U6A_OJ0-29" value="" style="verticalLabelPosition=bottom;outlineConnect=0;align=center;dashed=1;html=1;verticalAlign=top;shape=mxgraph.pid.misc.tank_car,_tank_wagon;rounded=0;fontFamily=Times New Roman;fontSize=15;strokeWidth=3;dashPattern=1 1;fillColor=#cdeb8b;strokeColor=#36393d;" vertex="1" parent="1">
          <mxGeometry x="710" y="249.5" width="40" height="30" as="geometry" />
        </mxCell>
      </root>
    </mxGraphModel>
  </diagram>
</mxfile>
